<?xml version="1.0" encoding="utf-8"?>
<!-- Generator: Adobe Illustrator 16.0.4, SVG Export Plug-In . SVG Version: 6.00 Build 0)  -->
<!DOCTYPE svg PUBLIC "-//W3C//DTD SVG 1.1//EN" "http://www.w3.org/Graphics/SVG/1.1/DTD/svg11.dtd">
<svg version="1.1" id="Ebene_1" xmlns="http://www.w3.org/2000/svg" xmlns:xlink="http://www.w3.org/1999/xlink" x="0px" y="0px"
	 width="243.779px" height="177.396px" viewBox="0 0 243.779 177.396" enable-background="new 0 0 243.779 177.396"
	 xml:space="preserve">
<g>
	<g id="Ebene_2">
		<g id="_x30_.2.13.5">
			<g id="breadboard_1_">
				<polygon id="_x30_.2.13.5.0.0_1_" fill="#008D36" points="37.873,155.906 26.453,155.906 26.453,177.346 37.873,177.346 				"/>
			</g>
			<g id="_x30_.2.13.5.1">
				<path id="_x30_.2.13.5.1.0" fill="#39A935" d="M32.36,164.677c1.655,0,3-1.367,3-3.055h-6
					C29.357,163.312,30.704,164.677,32.36,164.677z"/>
				<path id="_x30_.2.13.5.1.1" fill="#006633" d="M32.36,158.574c-1.653,0-2.998,1.368-2.998,3.046h6
					C35.362,159.94,34.018,158.574,32.36,158.574z"/>
				<g id="_x30_.2.13.5.1.2">
					<path id="_x30_.2.13.5.1.2.0" fill="#898989" d="M32.36,164.085c-1.335,0-2.421-1.104-2.421-2.461
						c0-1.354,1.085-2.461,2.421-2.461c0.641,0,1.245,0.249,1.701,0.71c0.465,0.466,0.72,1.087,0.72,1.748
						C34.781,162.98,33.696,164.085,32.36,164.085z"/>
					<g id="_x30_.2.13.5.1.2.1">
						<path id="_x30_.2.13.5.1.2.1.0" d="M32.36,159.193c1.317,0,2.391,1.089,2.387,2.431c0,1.343-1.068,2.43-2.387,2.43
							c-1.317,0-2.386-1.087-2.386-2.43C29.972,160.282,31.043,159.193,32.36,159.193 M32.36,159.126
							c-1.354,0-2.458,1.12-2.458,2.495c0,1.376,1.102,2.496,2.458,2.496c1.354,0,2.453-1.12,2.453-2.496
							c0.004-0.675-0.255-1.299-0.729-1.775C33.62,159.382,33.008,159.126,32.36,159.126L32.36,159.126z"/>
					</g>
					<g id="_x30_.2.13.5.1.2.2" opacity="0.5">
						<path id="_x30_.2.13.5.1.2.2.0" d="M32.36,159.393c0.577,0,1.123,0.226,1.534,0.641c0.417,0.419,0.651,0.984,0.648,1.584
							c0,1.232-0.979,2.23-2.185,2.23c-1.208,0-2.188-0.998-2.188-2.23C30.172,160.393,31.152,159.393,32.36,159.393 M32.36,159.193
							c-1.316,0-2.386,1.089-2.386,2.431c0,1.343,1.069,2.43,2.386,2.43c1.317,0,2.387-1.087,2.387-2.43
							C34.75,160.282,33.68,159.193,32.36,159.193L32.36,159.193z"/>
					</g>
				</g>
				<g id="_x30_.2.13.5.1.3">
					<path id="_x30_.2.13.5.1.3.0" fill="#676767" d="M30.172,161.621c0,0.202,0.034,0.392,0.083,0.581h4.207
						c0.05-0.185,0.082-0.379,0.082-0.581c0-0.193-0.027-0.385-0.082-0.57H30.25C30.206,161.237,30.172,161.425,30.172,161.621z"/>
				</g>
				<g id="_x30_.2.13.5.1.4">
					<path id="_x30_.2.13.5.1.4.0" opacity="0.15" enable-background="new    " d="M34.486,161.149
						c-0.009-0.034-0.015-0.067-0.024-0.097h-4.212c-0.007,0.03-0.014,0.062-0.021,0.095L34.486,161.149z"/>
					<path id="_x30_.2.13.5.1.4.1" opacity="0.15" fill="#FFFFFF" enable-background="new    " d="M30.228,162.095
						c0.008,0.036,0.018,0.07,0.025,0.105h4.207c0.012-0.036,0.019-0.068,0.025-0.105H30.228z"/>
				</g>
			</g>
			<rect id="_x30_.2.13.5.2" x="26.453" y="174.428" fill="#39A935" width="11.42" height="2.918"/>
			<polygon id="_x30_.2.13.5.3_1_" opacity="0.15" fill="#FFFFFF" enable-background="new    " points="26.651,155.906 
				26.453,155.906 26.453,177.346 26.651,177.346 			"/>
		</g>
		<g id="_x30_.2.13.5_1_">
			<g id="breadboard_2_">
				<polygon id="_x30_.2.13.5.0.0_2_" fill="#008D36" points="49.072,155.906 37.652,155.906 37.652,177.346 49.072,177.346 				"/>
			</g>
			<g id="_x30_.2.13.5.1_1_">
				<path id="_x30_.2.13.5.1.0_1_" fill="#39A935" d="M43.559,164.677c1.654,0,3-1.367,3-3.055h-6
					C40.556,163.312,41.902,164.677,43.559,164.677z"/>
				<path id="_x30_.2.13.5.1.1_1_" fill="#006633" d="M43.559,158.574c-1.654,0-2.998,1.368-2.998,3.046h6
					C46.561,159.94,45.217,158.574,43.559,158.574z"/>
				<g id="_x30_.2.13.5.1.2_1_">
					<path id="_x30_.2.13.5.1.2.0_1_" fill="#898989" d="M43.559,164.085c-1.335,0-2.421-1.104-2.421-2.461
						c0-1.354,1.085-2.461,2.421-2.461c0.641,0,1.245,0.249,1.7,0.71c0.466,0.466,0.721,1.087,0.721,1.748
						C45.98,162.98,44.895,164.085,43.559,164.085z"/>
					<g id="_x30_.2.13.5.1.2.1_1_">
						<path id="_x30_.2.13.5.1.2.1.0_1_" d="M43.559,159.193c1.317,0,2.391,1.089,2.386,2.431c0,1.343-1.067,2.43-2.386,2.43
							c-1.317,0-2.387-1.087-2.387-2.43C41.171,160.282,42.242,159.193,43.559,159.193 M43.559,159.126
							c-1.354,0-2.458,1.12-2.458,2.495c0,1.376,1.102,2.496,2.458,2.496c1.354,0,2.453-1.12,2.453-2.496
							c0.004-0.675-0.256-1.299-0.729-1.775C44.818,159.382,44.207,159.126,43.559,159.126L43.559,159.126z"/>
					</g>
					<g id="_x30_.2.13.5.1.2.2_1_" opacity="0.5">
						<path id="_x30_.2.13.5.1.2.2.0_1_" d="M43.559,159.393c0.576,0,1.123,0.226,1.533,0.641c0.417,0.419,0.652,0.984,0.649,1.584
							c0,1.232-0.979,2.23-2.185,2.23c-1.208,0-2.188-0.998-2.188-2.23C41.371,160.393,42.351,159.393,43.559,159.393
							 M43.559,159.193c-1.316,0-2.387,1.089-2.387,2.431c0,1.343,1.07,2.43,2.387,2.43c1.317,0,2.386-1.087,2.386-2.43
							C45.949,160.282,44.878,159.193,43.559,159.193L43.559,159.193z"/>
					</g>
				</g>
				<g id="_x30_.2.13.5.1.3_1_">
					<path id="_x30_.2.13.5.1.3.0_1_" fill="#676767" d="M41.371,161.621c0,0.202,0.033,0.392,0.083,0.581h4.207
						c0.05-0.185,0.082-0.379,0.082-0.581c0-0.193-0.028-0.385-0.082-0.57h-4.212C41.405,161.237,41.371,161.425,41.371,161.621z"/>
				</g>
				<g id="_x30_.2.13.5.1.4_1_">
					<path id="_x30_.2.13.5.1.4.0_1_" opacity="0.15" enable-background="new    " d="M45.685,161.149
						c-0.01-0.034-0.016-0.067-0.024-0.097h-4.213c-0.007,0.03-0.013,0.062-0.021,0.095L45.685,161.149z"/>
					<path id="_x30_.2.13.5.1.4.1_1_" opacity="0.15" fill="#FFFFFF" enable-background="new    " d="M41.427,162.095
						c0.009,0.036,0.018,0.07,0.026,0.105h4.207c0.011-0.036,0.018-0.068,0.025-0.105H41.427z"/>
				</g>
			</g>
			<rect id="_x30_.2.13.5.2_1_" x="37.652" y="174.428" fill="#39A935" width="11.42" height="2.918"/>
			<polygon id="_x30_.2.13.5.3_2_" opacity="0.15" fill="#FFFFFF" enable-background="new    " points="37.85,155.906 
				37.652,155.906 37.652,177.346 37.85,177.346 			"/>
		</g>
		<g id="_x30_.2.13.5_2_">
			<g id="breadboard_3_">
				<polygon id="_x30_.2.13.5.0.0_3_" fill="#008D36" points="60.492,155.906 49.072,155.906 49.072,177.346 60.492,177.346 				"/>
			</g>
			<g id="_x30_.2.13.5.1_2_">
				<path id="_x30_.2.13.5.1.0_2_" fill="#39A935" d="M54.979,164.677c1.654,0,3-1.367,3-3.055h-6
					C51.976,163.312,53.322,164.677,54.979,164.677z"/>
				<path id="_x30_.2.13.5.1.1_2_" fill="#006633" d="M54.979,158.574c-1.653,0-2.998,1.368-2.998,3.046h6
					C57.981,159.94,56.636,158.574,54.979,158.574z"/>
				<g id="_x30_.2.13.5.1.2_2_">
					<path id="_x30_.2.13.5.1.2.0_2_" fill="#898989" d="M54.979,164.085c-1.335,0-2.421-1.104-2.421-2.461
						c0-1.354,1.085-2.461,2.421-2.461c0.641,0,1.245,0.249,1.701,0.71c0.465,0.466,0.72,1.087,0.72,1.748
						C57.399,162.98,56.314,164.085,54.979,164.085z"/>
					<g id="_x30_.2.13.5.1.2.1_2_">
						<path id="_x30_.2.13.5.1.2.1.0_2_" d="M54.979,159.193c1.317,0,2.391,1.089,2.387,2.431c0,1.343-1.068,2.43-2.387,2.43
							c-1.317,0-2.387-1.087-2.387-2.43C52.591,160.282,53.662,159.193,54.979,159.193 M54.979,159.126
							c-1.354,0-2.458,1.12-2.458,2.495c0,1.376,1.102,2.496,2.458,2.496c1.354,0,2.453-1.12,2.453-2.496
							c0.004-0.675-0.256-1.299-0.729-1.775C56.238,159.382,55.627,159.126,54.979,159.126L54.979,159.126z"/>
					</g>
					<g id="_x30_.2.13.5.1.2.2_2_" opacity="0.5">
						<path id="_x30_.2.13.5.1.2.2.0_2_" d="M54.979,159.393c0.577,0,1.123,0.226,1.534,0.641c0.417,0.419,0.651,0.984,0.648,1.584
							c0,1.232-0.979,2.23-2.185,2.23c-1.208,0-2.188-0.998-2.188-2.23C52.791,160.393,53.771,159.393,54.979,159.393
							 M54.979,159.193c-1.316,0-2.387,1.089-2.387,2.431c0,1.343,1.07,2.43,2.387,2.43c1.317,0,2.387-1.087,2.387-2.43
							C57.369,160.282,56.298,159.193,54.979,159.193L54.979,159.193z"/>
					</g>
				</g>
				<g id="_x30_.2.13.5.1.3_2_">
					<path id="_x30_.2.13.5.1.3.0_2_" fill="#676767" d="M52.791,161.621c0,0.202,0.034,0.392,0.083,0.581h4.207
						c0.05-0.185,0.082-0.379,0.082-0.581c0-0.193-0.028-0.385-0.082-0.57h-4.212C52.825,161.237,52.791,161.425,52.791,161.621z"/>
				</g>
				<g id="_x30_.2.13.5.1.4_2_">
					<path id="_x30_.2.13.5.1.4.0_2_" opacity="0.15" enable-background="new    " d="M57.105,161.149
						c-0.009-0.034-0.016-0.067-0.024-0.097h-4.212c-0.008,0.03-0.014,0.062-0.021,0.095L57.105,161.149z"/>
					<path id="_x30_.2.13.5.1.4.1_2_" opacity="0.15" fill="#FFFFFF" enable-background="new    " d="M52.847,162.095
						c0.008,0.036,0.017,0.07,0.025,0.105h4.207c0.011-0.036,0.019-0.068,0.025-0.105H52.847z"/>
				</g>
			</g>
			<rect id="_x30_.2.13.5.2_2_" x="49.072" y="174.428" fill="#39A935" width="11.421" height="2.918"/>
			<polygon id="_x30_.2.13.5.3_3_" opacity="0.15" fill="#FFFFFF" enable-background="new    " points="49.27,155.906 
				49.072,155.906 49.072,177.346 49.27,177.346 			"/>
		</g>
		<g id="_x30_.2.13.5_5_">
			<g id="breadboard_6_">
				<polygon id="_x30_.2.13.5.0.0_6_" fill="#008D36" points="71.912,155.906 60.492,155.906 60.492,177.346 71.912,177.346 				"/>
			</g>
			<g id="_x30_.2.13.5.1_5_">
				<path id="_x30_.2.13.5.1.0_5_" fill="#39A935" d="M66.398,164.677c1.654,0,3-1.367,3-3.055h-6
					C63.396,163.312,64.742,164.677,66.398,164.677z"/>
				<path id="_x30_.2.13.5.1.1_5_" fill="#006633" d="M66.398,158.574c-1.653,0-2.998,1.368-2.998,3.046h6
					C69.4,159.94,68.057,158.574,66.398,158.574z"/>
				<g id="_x30_.2.13.5.1.2_5_">
					<path id="_x30_.2.13.5.1.2.0_5_" fill="#898989" d="M66.398,164.085c-1.335,0-2.421-1.104-2.421-2.461
						c0-1.354,1.085-2.461,2.421-2.461c0.641,0,1.245,0.249,1.701,0.71c0.465,0.466,0.72,1.087,0.72,1.748
						C68.819,162.98,67.734,164.085,66.398,164.085z"/>
					<g id="_x30_.2.13.5.1.2.1_5_">
						<path id="_x30_.2.13.5.1.2.1.0_5_" d="M66.398,159.193c1.317,0,2.391,1.089,2.387,2.431c0,1.343-1.068,2.43-2.387,2.43
							c-1.317,0-2.387-1.087-2.387-2.43C64.01,160.282,65.082,159.193,66.398,159.193 M66.398,159.126
							c-1.354,0-2.458,1.12-2.458,2.495c0,1.376,1.102,2.496,2.458,2.496c1.354,0,2.453-1.12,2.453-2.496
							c0.004-0.675-0.255-1.299-0.729-1.775C67.658,159.382,67.047,159.126,66.398,159.126L66.398,159.126z"/>
					</g>
					<g id="_x30_.2.13.5.1.2.2_5_" opacity="0.5">
						<path id="_x30_.2.13.5.1.2.2.0_5_" d="M66.398,159.393c0.577,0,1.123,0.226,1.534,0.641c0.417,0.419,0.651,0.984,0.648,1.584
							c0,1.232-0.979,2.23-2.185,2.23c-1.208,0-2.188-0.998-2.188-2.23C64.21,160.393,65.191,159.393,66.398,159.393
							 M66.398,159.193c-1.316,0-2.387,1.089-2.387,2.431c0,1.343,1.07,2.43,2.387,2.43c1.317,0,2.387-1.087,2.387-2.43
							C68.789,160.282,67.718,159.193,66.398,159.193L66.398,159.193z"/>
					</g>
				</g>
				<g id="_x30_.2.13.5.1.3_5_">
					<path id="_x30_.2.13.5.1.3.0_5_" fill="#676767" d="M64.21,161.621c0,0.202,0.034,0.392,0.083,0.581H68.5
						c0.05-0.185,0.082-0.379,0.082-0.581c0-0.193-0.028-0.385-0.082-0.57h-4.212C64.245,161.237,64.21,161.425,64.21,161.621z"/>
				</g>
				<g id="_x30_.2.13.5.1.4_5_">
					<path id="_x30_.2.13.5.1.4.0_5_" opacity="0.15" enable-background="new    " d="M68.525,161.149
						c-0.009-0.034-0.016-0.067-0.024-0.097h-4.212c-0.008,0.03-0.014,0.062-0.021,0.095L68.525,161.149z"/>
					<path id="_x30_.2.13.5.1.4.1_5_" opacity="0.15" fill="#FFFFFF" enable-background="new    " d="M64.267,162.095
						c0.008,0.036,0.018,0.07,0.025,0.105H68.5c0.011-0.036,0.019-0.068,0.025-0.105H64.267z"/>
				</g>
			</g>
			<rect id="_x30_.2.13.5.2_5_" x="60.492" y="174.428" fill="#39A935" width="11.42" height="2.918"/>
			<polygon id="_x30_.2.13.5.3_6_" opacity="0.15" fill="#FFFFFF" enable-background="new    " points="60.69,155.906 
				60.492,155.906 60.492,177.346 60.69,177.346 			"/>
		</g>
		<g id="_x30_.2.13.5_4_">
			<g id="breadboard_5_">
				<polygon id="_x30_.2.13.5.0.0_5_" fill="#008D36" points="83.11,155.906 71.69,155.906 71.69,177.346 83.11,177.346 				"/>
			</g>
			<g id="_x30_.2.13.5.1_4_">
				<path id="_x30_.2.13.5.1.0_4_" fill="#39A935" d="M77.597,164.677c1.654,0,3-1.367,3-3.055h-6
					C74.594,163.312,75.941,164.677,77.597,164.677z"/>
				<path id="_x30_.2.13.5.1.1_4_" fill="#006633" d="M77.597,158.574c-1.654,0-2.998,1.368-2.998,3.046h6
					C80.599,159.94,79.255,158.574,77.597,158.574z"/>
				<g id="_x30_.2.13.5.1.2_4_">
					<path id="_x30_.2.13.5.1.2.0_4_" fill="#898989" d="M77.597,164.085c-1.336,0-2.422-1.104-2.422-2.461
						c0-1.354,1.085-2.461,2.422-2.461c0.64,0,1.244,0.249,1.7,0.71c0.466,0.466,0.721,1.087,0.721,1.748
						C80.018,162.98,78.933,164.085,77.597,164.085z"/>
					<g id="_x30_.2.13.5.1.2.1_4_">
						<path id="_x30_.2.13.5.1.2.1.0_4_" d="M77.597,159.193c1.317,0,2.39,1.089,2.386,2.431c0,1.343-1.067,2.43-2.386,2.43
							s-2.387-1.087-2.387-2.43C75.21,160.282,76.28,159.193,77.597,159.193 M77.597,159.126c-1.354,0-2.458,1.12-2.458,2.495
							c0,1.376,1.102,2.496,2.458,2.496c1.354,0,2.452-1.12,2.452-2.496c0.005-0.675-0.255-1.299-0.729-1.775
							C78.857,159.382,78.246,159.126,77.597,159.126L77.597,159.126z"/>
					</g>
					<g id="_x30_.2.13.5.1.2.2_4_" opacity="0.5">
						<path id="_x30_.2.13.5.1.2.2.0_4_" d="M77.597,159.393c0.576,0,1.123,0.226,1.533,0.641c0.417,0.419,0.652,0.984,0.648,1.584
							c0,1.232-0.979,2.23-2.184,2.23c-1.208,0-2.188-0.998-2.188-2.23C75.409,160.393,76.39,159.393,77.597,159.393
							 M77.597,159.193c-1.317,0-2.387,1.089-2.387,2.431c0,1.343,1.069,2.43,2.387,2.43s2.386-1.087,2.386-2.43
							C79.987,160.282,78.917,159.193,77.597,159.193L77.597,159.193z"/>
					</g>
				</g>
				<g id="_x30_.2.13.5.1.3_4_">
					<path id="_x30_.2.13.5.1.3.0_4_" fill="#676767" d="M75.409,161.621c0,0.202,0.033,0.392,0.083,0.581h4.207
						c0.05-0.185,0.081-0.379,0.081-0.581c0-0.193-0.027-0.385-0.081-0.57h-4.213C75.443,161.237,75.409,161.425,75.409,161.621z"/>
				</g>
				<g id="_x30_.2.13.5.1.4_4_">
					<path id="_x30_.2.13.5.1.4.0_4_" opacity="0.15" enable-background="new    " d="M79.724,161.149
						c-0.01-0.034-0.016-0.067-0.024-0.097h-4.213c-0.007,0.03-0.013,0.062-0.021,0.095L79.724,161.149z"/>
					<path id="_x30_.2.13.5.1.4.1_4_" opacity="0.15" fill="#FFFFFF" enable-background="new    " d="M75.465,162.095
						c0.009,0.036,0.018,0.07,0.026,0.105h4.206c0.012-0.036,0.019-0.068,0.026-0.105H75.465z"/>
				</g>
			</g>
			<rect id="_x30_.2.13.5.2_4_" x="71.69" y="174.428" fill="#39A935" width="11.42" height="2.918"/>
			<polygon id="_x30_.2.13.5.3_5_" opacity="0.15" fill="#FFFFFF" enable-background="new    " points="71.889,155.906 
				71.69,155.906 71.69,177.346 71.889,177.346 			"/>
		</g>
		<g id="_x30_.2.13.5_3_">
			<g id="breadboard_4_">
				<polygon id="_x30_.2.13.5.0.0_4_" fill="#008D36" points="94.53,155.906 83.11,155.906 83.11,177.346 94.53,177.346 				"/>
			</g>
			<g id="_x30_.2.13.5.1_3_">
				<path id="_x30_.2.13.5.1.0_3_" fill="#39A935" d="M89.017,164.677c1.654,0,3-1.367,3-3.055h-6
					C86.015,163.312,87.361,164.677,89.017,164.677z"/>
				<path id="_x30_.2.13.5.1.1_3_" fill="#006633" d="M89.017,158.574c-1.654,0-2.998,1.368-2.998,3.046h6
					C92.019,159.94,90.675,158.574,89.017,158.574z"/>
				<g id="_x30_.2.13.5.1.2_3_">
					<path id="_x30_.2.13.5.1.2.0_3_" fill="#898989" d="M89.017,164.085c-1.335,0-2.421-1.104-2.421-2.461
						c0-1.354,1.085-2.461,2.421-2.461c0.641,0,1.245,0.249,1.7,0.71c0.466,0.466,0.721,1.087,0.721,1.748
						C91.438,162.98,90.353,164.085,89.017,164.085z"/>
					<g id="_x30_.2.13.5.1.2.1_3_">
						<path id="_x30_.2.13.5.1.2.1.0_3_" d="M89.017,159.193c1.317,0,2.391,1.089,2.386,2.431c0,1.343-1.067,2.43-2.386,2.43
							c-1.317,0-2.387-1.087-2.387-2.43C86.629,160.282,87.7,159.193,89.017,159.193 M89.017,159.126
							c-1.354,0-2.458,1.12-2.458,2.495c0,1.376,1.102,2.496,2.458,2.496c1.354,0,2.453-1.12,2.453-2.496
							c0.004-0.675-0.256-1.299-0.729-1.775C90.277,159.382,89.666,159.126,89.017,159.126L89.017,159.126z"/>
					</g>
					<g id="_x30_.2.13.5.1.2.2_3_" opacity="0.5">
						<path id="_x30_.2.13.5.1.2.2.0_3_" d="M89.017,159.393c0.576,0,1.123,0.226,1.533,0.641c0.417,0.419,0.652,0.984,0.649,1.584
							c0,1.232-0.979,2.23-2.185,2.23c-1.208,0-2.188-0.998-2.188-2.23C86.829,160.393,87.81,159.393,89.017,159.393
							 M89.017,159.193c-1.316,0-2.387,1.089-2.387,2.431c0,1.343,1.07,2.43,2.387,2.43c1.317,0,2.386-1.087,2.386-2.43
							C91.407,160.282,90.337,159.193,89.017,159.193L89.017,159.193z"/>
					</g>
				</g>
				<g id="_x30_.2.13.5.1.3_3_">
					<path id="_x30_.2.13.5.1.3.0_3_" fill="#676767" d="M86.829,161.621c0,0.202,0.033,0.392,0.083,0.581h4.207
						c0.05-0.185,0.082-0.379,0.082-0.581c0-0.193-0.028-0.385-0.082-0.57h-4.212C86.863,161.237,86.829,161.425,86.829,161.621z"/>
				</g>
				<g id="_x30_.2.13.5.1.4_3_">
					<path id="_x30_.2.13.5.1.4.0_3_" opacity="0.15" enable-background="new    " d="M91.144,161.149
						c-0.01-0.034-0.016-0.067-0.024-0.097h-4.212c-0.008,0.03-0.014,0.062-0.021,0.095L91.144,161.149z"/>
					<path id="_x30_.2.13.5.1.4.1_3_" opacity="0.15" fill="#FFFFFF" enable-background="new    " d="M86.885,162.095
						c0.009,0.036,0.018,0.07,0.026,0.105h4.207c0.011-0.036,0.018-0.068,0.025-0.105H86.885z"/>
				</g>
			</g>
			<rect id="_x30_.2.13.5.2_3_" x="83.11" y="174.428" fill="#39A935" width="11.42" height="2.918"/>
			<polygon id="_x30_.2.13.5.3_4_" opacity="0.15" fill="#FFFFFF" enable-background="new    " points="83.309,155.906 
				83.11,155.906 83.11,177.346 83.309,177.346 			"/>
		</g>
		<g id="_x30_.2.13.5_9_">
			<g id="breadboard_10_">
				<polygon id="_x30_.2.13.5.0.0_10_" fill="#008D36" points="161.743,155.956 150.323,155.956 150.323,177.397 161.743,177.397 
									"/>
			</g>
			<g id="_x30_.2.13.5.1_9_">
				<path id="_x30_.2.13.5.1.0_9_" fill="#39A935" d="M156.23,164.728c1.654,0,3-1.366,3-3.055h-6
					C153.228,163.364,154.574,164.728,156.23,164.728z"/>
				<path id="_x30_.2.13.5.1.1_9_" fill="#006633" d="M156.23,158.624c-1.653,0-2.998,1.368-2.998,3.046h6
					C159.232,159.99,157.888,158.624,156.23,158.624z"/>
				<g id="_x30_.2.13.5.1.2_9_">
					<path id="_x30_.2.13.5.1.2.0_9_" fill="#898989" d="M156.23,164.136c-1.335,0-2.421-1.104-2.421-2.462
						c0-1.354,1.085-2.461,2.421-2.461c0.641,0,1.245,0.249,1.701,0.71c0.465,0.467,0.72,1.088,0.72,1.748
						C158.651,163.031,157.566,164.136,156.23,164.136z"/>
					<g id="_x30_.2.13.5.1.2.1_9_">
						<path id="_x30_.2.13.5.1.2.1.0_9_" d="M156.23,159.243c1.317,0,2.391,1.089,2.387,2.431c0,1.344-1.068,2.43-2.387,2.43
							c-1.317,0-2.387-1.086-2.387-2.43C153.842,160.332,154.913,159.243,156.23,159.243 M156.23,159.177
							c-1.354,0-2.458,1.119-2.458,2.494c0,1.376,1.102,2.496,2.458,2.496c1.354,0,2.453-1.12,2.453-2.496
							c0.004-0.675-0.256-1.299-0.729-1.775C157.49,159.432,156.878,159.177,156.23,159.177L156.23,159.177z"/>
					</g>
					<g id="_x30_.2.13.5.1.2.2_9_" opacity="0.5">
						<path id="_x30_.2.13.5.1.2.2.0_9_" d="M156.23,159.445c0.577,0,1.123,0.225,1.534,0.64c0.417,0.419,0.651,0.985,0.648,1.584
							c0,1.233-0.979,2.231-2.185,2.231c-1.208,0-2.188-0.998-2.188-2.231C154.042,160.445,155.023,159.445,156.23,159.445
							 M156.23,159.243c-1.316,0-2.387,1.089-2.387,2.431c0,1.344,1.07,2.43,2.387,2.43c1.317,0,2.387-1.086,2.387-2.43
							C158.62,160.332,157.55,159.243,156.23,159.243L156.23,159.243z"/>
					</g>
				</g>
				<g id="_x30_.2.13.5.1.3_9_">
					<path id="_x30_.2.13.5.1.3.0_9_" fill="#676767" d="M154.042,161.672c0,0.202,0.034,0.392,0.083,0.581h4.207
						c0.05-0.184,0.082-0.379,0.082-0.581c0-0.193-0.028-0.385-0.082-0.569h-4.212C154.076,161.286,154.042,161.476,154.042,161.672
						z"/>
				</g>
				<g id="_x30_.2.13.5.1.4_9_">
					<path id="_x30_.2.13.5.1.4.0_9_" opacity="0.15" enable-background="new    " d="M158.356,161.199
						c-0.009-0.034-0.016-0.067-0.024-0.097h-4.212c-0.008,0.03-0.014,0.062-0.021,0.096L158.356,161.199z"/>
					<path id="_x30_.2.13.5.1.4.1_9_" opacity="0.15" fill="#FFFFFF" enable-background="new    " d="M154.098,162.146
						c0.008,0.037,0.018,0.07,0.025,0.105h4.207c0.011-0.036,0.019-0.067,0.025-0.105H154.098z"/>
				</g>
			</g>
			<rect id="_x30_.2.13.5.2_9_" x="150.323" y="174.479" fill="#39A935" width="11.421" height="2.918"/>
			<polygon id="_x30_.2.13.5.3_10_" opacity="0.15" fill="#FFFFFF" enable-background="new    " points="150.522,155.956 
				150.323,155.956 150.323,177.397 150.522,177.397 			"/>
		</g>
		<g id="_x30_.2.13.5_8_">
			<g id="breadboard_9_">
				<polygon id="_x30_.2.13.5.0.0_9_" fill="#008D36" points="173.163,155.956 161.743,155.956 161.743,177.397 173.163,177.397 
									"/>
			</g>
			<g id="_x30_.2.13.5.1_8_">
				<path id="_x30_.2.13.5.1.0_8_" fill="#39A935" d="M167.65,164.728c1.655,0,3-1.366,3-3.055h-6
					C164.648,163.364,165.994,164.728,167.65,164.728z"/>
				<path id="_x30_.2.13.5.1.1_8_" fill="#006633" d="M167.65,158.624c-1.653,0-2.998,1.368-2.998,3.046h6
					C170.652,159.99,169.308,158.624,167.65,158.624z"/>
				<g id="_x30_.2.13.5.1.2_8_">
					<path id="_x30_.2.13.5.1.2.0_8_" fill="#898989" d="M167.65,164.136c-1.335,0-2.421-1.104-2.421-2.462
						c0-1.354,1.085-2.461,2.421-2.461c0.641,0,1.245,0.249,1.701,0.71c0.465,0.467,0.72,1.088,0.72,1.748
						C170.071,163.031,168.986,164.136,167.65,164.136z"/>
					<g id="_x30_.2.13.5.1.2.1_8_">
						<path id="_x30_.2.13.5.1.2.1.0_8_" d="M167.65,159.243c1.317,0,2.391,1.089,2.387,2.431c0,1.344-1.068,2.43-2.387,2.43
							c-1.317,0-2.386-1.086-2.386-2.43C165.262,160.332,166.333,159.243,167.65,159.243 M167.65,159.177
							c-1.354,0-2.458,1.119-2.458,2.494c0,1.376,1.102,2.496,2.458,2.496c1.354,0,2.453-1.12,2.453-2.496
							c0.004-0.675-0.255-1.299-0.729-1.775C168.91,159.432,168.298,159.177,167.65,159.177L167.65,159.177z"/>
					</g>
					<g id="_x30_.2.13.5.1.2.2_8_" opacity="0.5">
						<path id="_x30_.2.13.5.1.2.2.0_8_" d="M167.65,159.445c0.577,0,1.123,0.225,1.534,0.64c0.417,0.419,0.651,0.985,0.648,1.584
							c0,1.233-0.979,2.231-2.185,2.231c-1.208,0-2.188-0.998-2.188-2.231C165.462,160.445,166.442,159.445,167.65,159.445
							 M167.65,159.243c-1.316,0-2.386,1.089-2.386,2.431c0,1.344,1.069,2.43,2.386,2.43c1.317,0,2.387-1.086,2.387-2.43
							C170.04,160.332,168.969,159.243,167.65,159.243L167.65,159.243z"/>
					</g>
				</g>
				<g id="_x30_.2.13.5.1.3_8_">
					<path id="_x30_.2.13.5.1.3.0_8_" fill="#676767" d="M165.462,161.672c0,0.202,0.034,0.392,0.083,0.581h4.207
						c0.05-0.184,0.082-0.379,0.082-0.581c0-0.193-0.027-0.385-0.082-0.569h-4.212C165.496,161.286,165.462,161.476,165.462,161.672
						z"/>
				</g>
				<g id="_x30_.2.13.5.1.4_8_">
					<path id="_x30_.2.13.5.1.4.0_8_" opacity="0.15" enable-background="new    " d="M169.776,161.199
						c-0.009-0.034-0.016-0.067-0.024-0.097h-4.212c-0.007,0.03-0.014,0.062-0.021,0.096L169.776,161.199z"/>
					<path id="_x30_.2.13.5.1.4.1_8_" opacity="0.15" fill="#FFFFFF" enable-background="new    " d="M165.518,162.146
						c0.008,0.037,0.018,0.07,0.025,0.105h4.207c0.011-0.036,0.019-0.067,0.025-0.105H165.518z"/>
				</g>
			</g>
			<rect id="_x30_.2.13.5.2_8_" x="161.743" y="174.479" fill="#39A935" width="11.42" height="2.918"/>
			<polygon id="_x30_.2.13.5.3_9_" opacity="0.15" fill="#FFFFFF" enable-background="new    " points="161.941,155.956 
				161.743,155.956 161.743,177.397 161.941,177.397 			"/>
		</g>
		<g id="_x30_.2.13.5_7_">
			<g id="breadboard_8_">
				<polygon id="_x30_.2.13.5.0.0_8_" fill="#008D36" points="184.362,155.956 172.942,155.956 172.942,177.397 184.362,177.397 
									"/>
			</g>
			<g id="_x30_.2.13.5.1_7_">
				<path id="_x30_.2.13.5.1.0_7_" fill="#39A935" d="M178.849,164.728c1.654,0,3-1.366,3-3.055h-6
					C175.846,163.364,177.192,164.728,178.849,164.728z"/>
				<path id="_x30_.2.13.5.1.1_7_" fill="#006633" d="M178.849,158.624c-1.654,0-2.998,1.368-2.998,3.046h6
					C181.851,159.99,180.507,158.624,178.849,158.624z"/>
				<g id="_x30_.2.13.5.1.2_7_">
					<path id="_x30_.2.13.5.1.2.0_7_" fill="#898989" d="M178.849,164.136c-1.335,0-2.422-1.104-2.422-2.462
						c0-1.354,1.086-2.461,2.422-2.461c0.64,0,1.244,0.249,1.7,0.71c0.466,0.467,0.721,1.088,0.721,1.748
						C181.27,163.031,180.185,164.136,178.849,164.136z"/>
					<g id="_x30_.2.13.5.1.2.1_7_">
						<path id="_x30_.2.13.5.1.2.1.0_7_" d="M178.849,159.243c1.317,0,2.39,1.089,2.386,2.431c0,1.344-1.067,2.43-2.386,2.43
							s-2.387-1.086-2.387-2.43C176.461,160.332,177.532,159.243,178.849,159.243 M178.849,159.177
							c-1.354,0-2.458,1.119-2.458,2.494c0,1.376,1.102,2.496,2.458,2.496c1.354,0,2.452-1.12,2.452-2.496
							c0.005-0.675-0.255-1.299-0.729-1.775C180.108,159.432,179.497,159.177,178.849,159.177L178.849,159.177z"/>
					</g>
					<g id="_x30_.2.13.5.1.2.2_7_" opacity="0.5">
						<path id="_x30_.2.13.5.1.2.2.0_7_" d="M178.849,159.445c0.576,0,1.123,0.225,1.533,0.64c0.417,0.419,0.652,0.985,0.648,1.584
							c0,1.233-0.979,2.231-2.184,2.231c-1.208,0-2.188-0.998-2.188-2.231C176.661,160.445,177.641,159.445,178.849,159.445
							 M178.849,159.243c-1.316,0-2.387,1.089-2.387,2.431c0,1.344,1.07,2.43,2.387,2.43c1.317,0,2.386-1.086,2.386-2.43
							C181.239,160.332,180.169,159.243,178.849,159.243L178.849,159.243z"/>
					</g>
				</g>
				<g id="_x30_.2.13.5.1.3_7_">
					<path id="_x30_.2.13.5.1.3.0_7_" fill="#676767" d="M176.661,161.672c0,0.202,0.033,0.392,0.083,0.581h4.207
						c0.05-0.184,0.082-0.379,0.082-0.581c0-0.193-0.028-0.385-0.082-0.569h-4.213C176.695,161.286,176.661,161.476,176.661,161.672
						z"/>
				</g>
				<g id="_x30_.2.13.5.1.4_7_">
					<path id="_x30_.2.13.5.1.4.0_7_" opacity="0.15" enable-background="new    " d="M180.975,161.199
						c-0.01-0.034-0.016-0.067-0.024-0.097h-4.213c-0.007,0.03-0.013,0.062-0.021,0.096L180.975,161.199z"/>
					<path id="_x30_.2.13.5.1.4.1_7_" opacity="0.15" fill="#FFFFFF" enable-background="new    " d="M176.717,162.146
						c0.009,0.037,0.018,0.07,0.026,0.105h4.207c0.011-0.036,0.018-0.067,0.025-0.105H176.717z"/>
				</g>
			</g>
			<rect id="_x30_.2.13.5.2_7_" x="172.942" y="174.479" fill="#39A935" width="11.42" height="2.918"/>
			<polygon id="_x30_.2.13.5.3_8_" opacity="0.15" fill="#FFFFFF" enable-background="new    " points="173.14,155.956 
				172.942,155.956 172.942,177.397 173.14,177.397 			"/>
		</g>
		<g id="_x30_.2.13.5_6_">
			<g id="breadboard_7_">
				<polygon id="_x30_.2.13.5.0.0_7_" fill="#008D36" points="195.782,155.956 184.362,155.956 184.362,177.397 195.782,177.397 
									"/>
			</g>
			<g id="_x30_.2.13.5.1_6_">
				<path id="_x30_.2.13.5.1.0_6_" fill="#39A935" d="M190.269,164.728c1.654,0,3-1.366,3-3.055h-6
					C187.266,163.364,188.612,164.728,190.269,164.728z"/>
				<path id="_x30_.2.13.5.1.1_6_" fill="#006633" d="M190.269,158.624c-1.654,0-2.998,1.368-2.998,3.046h6
					C193.271,159.99,191.927,158.624,190.269,158.624z"/>
				<g id="_x30_.2.13.5.1.2_6_">
					<path id="_x30_.2.13.5.1.2.0_6_" fill="#898989" d="M190.269,164.136c-1.335,0-2.421-1.104-2.421-2.462
						c0-1.354,1.085-2.461,2.421-2.461c0.641,0,1.245,0.249,1.7,0.71c0.466,0.467,0.721,1.088,0.721,1.748
						C192.69,163.031,191.605,164.136,190.269,164.136z"/>
					<g id="_x30_.2.13.5.1.2.1_6_">
						<path id="_x30_.2.13.5.1.2.1.0_6_" d="M190.269,159.243c1.317,0,2.391,1.089,2.386,2.431c0,1.344-1.067,2.43-2.386,2.43
							c-1.317,0-2.387-1.086-2.387-2.43C187.881,160.332,188.952,159.243,190.269,159.243 M190.269,159.177
							c-1.354,0-2.458,1.119-2.458,2.494c0,1.376,1.102,2.496,2.458,2.496c1.354,0,2.453-1.12,2.453-2.496
							c0.004-0.675-0.256-1.299-0.729-1.775C191.528,159.432,190.917,159.177,190.269,159.177L190.269,159.177z"/>
					</g>
					<g id="_x30_.2.13.5.1.2.2_6_" opacity="0.5">
						<path id="_x30_.2.13.5.1.2.2.0_6_" d="M190.269,159.445c0.577,0,1.123,0.225,1.533,0.64c0.417,0.419,0.652,0.985,0.649,1.584
							c0,1.233-0.979,2.231-2.185,2.231c-1.208,0-2.188-0.998-2.188-2.231C188.081,160.445,189.061,159.445,190.269,159.445
							 M190.269,159.243c-1.316,0-2.387,1.089-2.387,2.431c0,1.344,1.07,2.43,2.387,2.43c1.317,0,2.386-1.086,2.386-2.43
							C192.659,160.332,191.588,159.243,190.269,159.243L190.269,159.243z"/>
					</g>
				</g>
				<g id="_x30_.2.13.5.1.3_6_">
					<path id="_x30_.2.13.5.1.3.0_6_" fill="#676767" d="M188.081,161.672c0,0.202,0.033,0.392,0.083,0.581h4.207
						c0.05-0.184,0.082-0.379,0.082-0.581c0-0.193-0.028-0.385-0.082-0.569h-4.212C188.115,161.286,188.081,161.476,188.081,161.672
						z"/>
				</g>
				<g id="_x30_.2.13.5.1.4_6_">
					<path id="_x30_.2.13.5.1.4.0_6_" opacity="0.15" enable-background="new    " d="M192.395,161.199
						c-0.01-0.034-0.016-0.067-0.024-0.097h-4.212c-0.008,0.03-0.014,0.062-0.021,0.096L192.395,161.199z"/>
					<path id="_x30_.2.13.5.1.4.1_6_" opacity="0.15" fill="#FFFFFF" enable-background="new    " d="M188.137,162.146
						c0.008,0.037,0.017,0.07,0.025,0.105h4.207c0.011-0.036,0.019-0.067,0.025-0.105H188.137z"/>
				</g>
			</g>
			<rect id="_x30_.2.13.5.2_6_" x="184.362" y="174.479" fill="#39A935" width="11.421" height="2.918"/>
			<polygon id="_x30_.2.13.5.3_7_" opacity="0.15" fill="#FFFFFF" enable-background="new    " points="184.56,155.956 
				184.362,155.956 184.362,177.397 184.56,177.397 			"/>
		</g>
		<g id="breadboard">
			<g id="g12">
				<path id="path14_1_" opacity="0.3" fill="#33A83F" enable-background="new    " d="M206.429,155.293
					c0,2.521,2.039,4.564,4.562,4.564c2.52,0,4.564-2.041,4.564-4.564"/>
				<path id="path16_1_" fill="#E5E5E5" fill-opacity="0" d="M206.429,155.293c0,2.521,2.039,4.564,4.562,4.564
					c2.52,0,4.564-2.041,4.564-4.564"/>
				<path id="path32_1_" opacity="0.65" fill="#33A83F" enable-background="new    " d="M206.429,155.293
					c0,2.521,2.039,4.564,4.562,4.564c2.52,0,4.564-2.041,4.564-4.564H206.429z"/>
				<path id="path34" opacity="0.5" fill="#FFFFFF" enable-background="new    " d="M208.866,157.44l-0.926,0.176
					c0.542,0.729,1.343,1.261,2.281,1.44l-0.164-0.695C209.567,158.187,209.152,157.86,208.866,157.44z"/>
				<path id="path38_2_" opacity="0.5" fill="#FFFFFF" enable-background="new    " d="M213.412,155.29
					c0,0.947-0.546,1.758-1.335,2.157l0.015,0.034l0.804,0.974c1.075-0.646,1.796-1.816,1.796-3.163L213.412,155.29z"/>
			</g>
		</g>
	</g>
	<g id="Ebene_1_1_">
		<path fill="#050607" d="M239.155,85.595c-3.214,0-5.818-2.604-5.818-5.818s2.604-5.818,5.818-5.818h4.625V0H0v74.078h4.625
			c3.214,0,5.818,2.604,5.818,5.817c0,3.216-2.604,5.818-5.818,5.818H0v70.19H243.78V85.595H239.155L239.155,85.595z"/>
		<rect x="15.59" y="0" fill="#232324" width="212.6" height="155.905"/>
		<rect x="0" y="0" fill="#303031" width="243.779" height="8.504"/>
		<text transform="matrix(1 0 0 1 26.5022 28.657)" fill="#FFFFFF" font-family="'OCRA'" font-size="12">Leadshine DM422C</text>
		
			<text transform="matrix(-4.371139e-08 1 -1 -4.371139e-08 209.3821 139.4167)" fill="#F5F5F5" font-family="'OCRA'" font-size="6">PWR</text>
		
			<text transform="matrix(-4.371139e-08 1 -1 -4.371139e-08 187.3821 139.4167)" fill="#F5F5F5" font-family="'OCRA'" font-size="6">PUL</text>
		
			<text transform="matrix(-4.371139e-08 1 -1 -4.371139e-08 176.3821 139.4167)" fill="#F5F5F5" font-family="'OCRA'" font-size="6">DIR</text>
		
			<text transform="matrix(-4.371139e-08 1 -1 -4.371139e-08 165.3821 135.0964)" fill="#F5F5F5" font-family="'OCRA'" font-size="6">OPTO</text>
		
			<text transform="matrix(-4.371139e-08 1 -1 -4.371139e-08 154.3821 139.4167)" fill="#F5F5F5" font-family="'OCRA'" font-size="6">ENA</text>
		<text transform="matrix(-4.371139e-08 1 -1 -4.371139e-08 86.5286 138.8269)" fill="#F5F5F5" font-family="'OCRA'" font-size="6">GND</text>
		<text transform="matrix(-4.371139e-08 1 -1 -4.371139e-08 75.5286 134.5066)" fill="#F5F5F5" font-family="'OCRA'" font-size="6">+Vdc</text>
		<text transform="matrix(-4.371139e-08 1 -1 -4.371139e-08 64.5286 143.1472)" fill="#F5F5F5" font-family="'OCRA'" font-size="6">A+</text>
		<text transform="matrix(-4.371139e-08 1 -1 -4.371139e-08 53.5286 143.1472)" fill="#F5F5F5" font-family="'OCRA'" font-size="6">A-</text>
		<text transform="matrix(-4.371139e-08 1 -1 -4.371139e-08 42.5286 143.1472)" fill="#F5F5F5" font-family="'OCRA'" font-size="6">B+</text>
		<text transform="matrix(-4.371139e-08 1 -1 -4.371139e-08 31.5286 143.1472)" fill="#F5F5F5" font-family="'OCRA'" font-size="6">B-</text>
		
			<text transform="matrix(-4.371139e-08 1 -1 -4.371139e-08 139.0696 139.0984)" fill="#F5F5F5" font-family="'OCRA'" font-size="6">SW6</text>
		
			<text transform="matrix(-4.371139e-08 1 -1 -4.371139e-08 131.8704 139.0984)" fill="#F5F5F5" font-family="'OCRA'" font-size="6">SW5</text>
		
			<text transform="matrix(-4.371139e-08 1 -1 -4.371139e-08 124.6711 139.0984)" fill="#F5F5F5" font-family="'OCRA'" font-size="6">SW4</text>
		
			<text transform="matrix(-4.371139e-08 1 -1 -4.371139e-08 117.4719 139.0984)" fill="#F5F5F5" font-family="'OCRA'" font-size="6">SW3</text>
		
			<text transform="matrix(-4.371139e-08 1 -1 -4.371139e-08 110.2688 139.0984)" fill="#F5F5F5" font-family="'OCRA'" font-size="6">SW2</text>
		
			<text transform="matrix(-4.371139e-08 1 -1 -4.371139e-08 103.0696 139.0984)" fill="#F5F5F5" font-family="'OCRA'" font-size="6">SW1</text>
		<line fill="none" stroke="#6F6F6E" stroke-miterlimit="10" x1="0" y1="0" x2="243.779" y2="0"/>
		<rect x="227.447" y="8.504" fill="#303031" width="1.484" height="147.401"/>
		<rect x="14.848" y="8.504" fill="#303031" width="1.483" height="147.401"/>
		<rect x="14.848" y="154.422" fill="#1D1D1B" width="214.083" height="1.483"/>
		<line fill="none" stroke="#050607" stroke-miterlimit="10" x1="0" y1="8.504" x2="243.779" y2="8.504"/>
		<g>
			<text transform="matrix(1 0 0 1 29.532 58.5339)" fill="#F5F5F5" font-family="'OCRA'" font-size="4">PK Current SW1 SW2 SW3</text>
			<text transform="matrix(1 0 0 1 33.6023 65.3367)" fill="#F5F5F5" font-family="'OCRA'" font-size="4">Default</text>
			<text transform="matrix(1 0 0 1 37.9216 72.3875)" fill="#F5F5F5" font-family="'OCRA'" font-size="4">0.5A</text>
			<text transform="matrix(1 0 0 1 37.9216 79.4373)" fill="#F5F5F5" font-family="'OCRA'" font-size="4">0.7A</text>
			<text transform="matrix(1 0 0 1 37.9216 86.4871)" fill="#F5F5F5" font-family="'OCRA'" font-size="4">1.0A</text>
			<text transform="matrix(1 0 0 1 37.9216 93.5369)" fill="#F5F5F5" font-family="'OCRA'" font-size="4">1.3A</text>
			<text transform="matrix(1 0 0 1 37.9216 100.5867)" fill="#F5F5F5" font-family="'OCRA'" font-size="4">1.6A</text>
			<text transform="matrix(1 0 0 1 37.9216 107.6375)" fill="#F5F5F5" font-family="'OCRA'" font-size="4">1.9A</text>
			<text transform="matrix(1 0 0 1 37.9216 114.6873)" fill="#F5F5F5" font-family="'OCRA'" font-size="4">2.2A</text>
			<text transform="matrix(1 0 0 1 62.72 65.3367)" fill="#F5F5F5" font-family="'OCRA'" font-size="4">ON</text>
			<text transform="matrix(1 0 0 1 61.2795 72.4373)" fill="#F5F5F5" font-family="'OCRA'" font-size="4">OFF</text>
			<text transform="matrix(1 0 0 1 62.72 79.5369)" fill="#F5F5F5" font-family="'OCRA'" font-size="4">ON</text>
			<text transform="matrix(1 0 0 1 61.2795 86.6375)" fill="#F5F5F5" font-family="'OCRA'" font-size="4">OFF</text>
			<text transform="matrix(1 0 0 1 62.72 93.7371)" fill="#F5F5F5" font-family="'OCRA'" font-size="4">ON</text>
			<text transform="matrix(1 0 0 1 61.2795 100.8367)" fill="#F5F5F5" font-family="'OCRA'" font-size="4">OFF</text>
			<text transform="matrix(1 0 0 1 62.72 107.9373)" fill="#F5F5F5" font-family="'OCRA'" font-size="4">ON</text>
			<text transform="matrix(1 0 0 1 61.2795 115.0369)" fill="#F5F5F5" font-family="'OCRA'" font-size="4">OFF</text>
			<text transform="matrix(1 0 0 1 74.1731 65.3367)" fill="#F5F5F5" font-family="'OCRA'" font-size="4">ON</text>
			<text transform="matrix(1 0 0 1 74.1731 72.4373)" fill="#F5F5F5" font-family="'OCRA'" font-size="4">ON</text>
			<text transform="matrix(1 0 0 1 72.7332 79.5369)" fill="#F5F5F5" font-family="'OCRA'" font-size="4">OFF</text>
			<text transform="matrix(1 0 0 1 72.7332 86.6375)" fill="#F5F5F5" font-family="'OCRA'" font-size="4">OFF</text>
			<text transform="matrix(1 0 0 1 74.1731 93.7371)" fill="#F5F5F5" font-family="'OCRA'" font-size="4">ON</text>
			<text transform="matrix(1 0 0 1 74.1731 100.8367)" fill="#F5F5F5" font-family="'OCRA'" font-size="4">ON</text>
			<text transform="matrix(1 0 0 1 72.7332 107.9373)" fill="#F5F5F5" font-family="'OCRA'" font-size="4">OFF</text>
			<text transform="matrix(1 0 0 1 72.7332 115.0369)" fill="#F5F5F5" font-family="'OCRA'" font-size="4">OFF</text>
			<text transform="matrix(1 0 0 1 85.593 65.3367)" fill="#F5F5F5" font-family="'OCRA'" font-size="4">ON</text>
			<text transform="matrix(1 0 0 1 85.593 72.4373)" fill="#F5F5F5" font-family="'OCRA'" font-size="4">ON</text>
			<text transform="matrix(1 0 0 1 85.593 79.5369)" fill="#F5F5F5" font-family="'OCRA'" font-size="4">ON</text>
			<text transform="matrix(1 0 0 1 85.593 86.6375)" fill="#F5F5F5" font-family="'OCRA'" font-size="4">ON</text>
			<text transform="matrix(1 0 0 1 84.1536 93.7371)" fill="#F5F5F5" font-family="'OCRA'" font-size="4">OFF</text>
			<text transform="matrix(1 0 0 1 84.1536 100.8367)" fill="#F5F5F5" font-family="'OCRA'" font-size="4">OFF</text>
			<text transform="matrix(1 0 0 1 84.1536 107.9373)" fill="#F5F5F5" font-family="'OCRA'" font-size="4">OFF</text>
			<text transform="matrix(1 0 0 1 84.1536 115.0369)" fill="#F5F5F5" font-family="'OCRA'" font-size="4">OFF</text>
			<g>
				<g>
					
						<line fill="none" stroke="#F5F5F5" stroke-width="0.2873" stroke-miterlimit="10" x1="28.198" y1="116.99" x2="94.532" y2="116.99"/>
				</g>
				<g>
					
						<line fill="none" stroke="#F5F5F5" stroke-width="0.2873" stroke-miterlimit="10" x1="28.198" y1="109.904" x2="94.532" y2="109.904"/>
				</g>
				<g>
					
						<line fill="none" stroke="#F5F5F5" stroke-width="0.2873" stroke-miterlimit="10" x1="28.198" y1="102.817" x2="94.532" y2="102.817"/>
				</g>
				<g>
					
						<line fill="none" stroke="#F5F5F5" stroke-width="0.2873" stroke-miterlimit="10" x1="28.198" y1="95.73" x2="94.532" y2="95.73"/>
				</g>
				<g>
					
						<line fill="none" stroke="#F5F5F5" stroke-width="0.2873" stroke-miterlimit="10" x1="28.198" y1="88.643" x2="94.532" y2="88.643"/>
				</g>
				<g>
					
						<line fill="none" stroke="#F5F5F5" stroke-width="0.2873" stroke-miterlimit="10" x1="28.198" y1="81.557" x2="94.532" y2="81.557"/>
				</g>
				<g>
					
						<line fill="none" stroke="#F5F5F5" stroke-width="0.2873" stroke-miterlimit="10" x1="28.198" y1="74.47" x2="94.532" y2="74.47"/>
				</g>
				<g>
					
						<line fill="none" stroke="#F5F5F5" stroke-width="0.2873" stroke-miterlimit="10" x1="28.198" y1="67.385" x2="94.532" y2="67.385"/>
				</g>
				<g>
					
						<line fill="none" stroke="#F5F5F5" stroke-width="0.2873" stroke-miterlimit="10" x1="28.198" y1="60.298" x2="94.532" y2="60.298"/>
				</g>
				<g>
					
						<line fill="none" stroke="#F5F5F5" stroke-width="0.2873" stroke-miterlimit="10" x1="28.198" y1="53.211" x2="94.532" y2="53.211"/>
				</g>
			</g>
			
				<line fill="none" stroke="#F5F5F5" stroke-width="0.3037" stroke-miterlimit="10" x1="28.198" y1="53.211" x2="28.198" y2="117.086"/>
			
				<line fill="none" stroke="#F5F5F5" stroke-width="0.3035" stroke-miterlimit="10" x1="94.532" y1="53.344" x2="94.532" y2="117.142"/>
			
				<line fill="none" stroke="#F5F5F5" stroke-width="0.3035" stroke-miterlimit="10" x1="82.698" y1="53.211" x2="82.698" y2="117.011"/>
			
				<line fill="none" stroke="#F5F5F5" stroke-width="0.3035" stroke-miterlimit="10" x1="71.365" y1="53.344" x2="71.365" y2="117.142"/>
			
				<line fill="none" stroke="#F5F5F5" stroke-width="0.3034" stroke-miterlimit="10" x1="60.01" y1="53.34" x2="60.01" y2="117.086"/>
			<text transform="matrix(1 0 0 1 28.1985 51.2566)" fill="#F5F5F5" font-family="'OCRA'" font-size="4">PK Current Table</text>
		</g>
		<g>
			<text transform="matrix(1 0 0 1 144.1594 58.5339)" fill="#F5F5F5" font-family="'OCRA'" font-size="4">MSTEP  SW5 SW6</text>
			<text transform="matrix(1 0 0 1 141.2297 65.3367)" fill="#F5F5F5" font-family="'OCRA'" font-size="4">Default</text>
			<text transform="matrix(1 0 0 1 145.55 72.3875)" fill="#F5F5F5" font-family="'OCRA'" font-size="4">1600</text>
			<text transform="matrix(1 0 0 1 145.55 79.4373)" fill="#F5F5F5" font-family="'OCRA'" font-size="4">3200</text>
			<text transform="matrix(1 0 0 1 145.55 86.4871)" fill="#F5F5F5" font-family="'OCRA'" font-size="4">6400</text>
			<text transform="matrix(1 0 0 1 165.3479 65.3367)" fill="#F5F5F5" font-family="'OCRA'" font-size="4">ON</text>
			<text transform="matrix(1 0 0 1 163.9075 72.4373)" fill="#F5F5F5" font-family="'OCRA'" font-size="4">OFF</text>
			<text transform="matrix(1 0 0 1 165.3479 79.5369)" fill="#F5F5F5" font-family="'OCRA'" font-size="4">ON</text>
			<text transform="matrix(1 0 0 1 163.9075 86.6375)" fill="#F5F5F5" font-family="'OCRA'" font-size="4">OFF</text>
			<text transform="matrix(1 0 0 1 176.8 65.3367)" fill="#F5F5F5" font-family="'OCRA'" font-size="4">ON</text>
			<text transform="matrix(1 0 0 1 176.8 72.4373)" fill="#F5F5F5" font-family="'OCRA'" font-size="4">ON</text>
			<text transform="matrix(1 0 0 1 175.3606 79.5369)" fill="#F5F5F5" font-family="'OCRA'" font-size="4">OFF</text>
			<text transform="matrix(1 0 0 1 175.3606 86.6375)" fill="#F5F5F5" font-family="'OCRA'" font-size="4">OFF</text>
			<g>
				<g>
					
						<line fill="none" stroke="#F5F5F5" stroke-width="0.2873" stroke-miterlimit="10" x1="139.826" y1="88.643" x2="185.54" y2="88.643"/>
				</g>
				<g>
					
						<line fill="none" stroke="#F5F5F5" stroke-width="0.2873" stroke-miterlimit="10" x1="139.826" y1="81.557" x2="185.54" y2="81.557"/>
				</g>
				<g>
					
						<line fill="none" stroke="#F5F5F5" stroke-width="0.2873" stroke-miterlimit="10" x1="139.826" y1="74.47" x2="185.54" y2="74.47"/>
				</g>
				<g>
					
						<line fill="none" stroke="#F5F5F5" stroke-width="0.2873" stroke-miterlimit="10" x1="139.826" y1="67.385" x2="185.54" y2="67.385"/>
				</g>
				<g>
					
						<line fill="none" stroke="#F5F5F5" stroke-width="0.2873" stroke-miterlimit="10" x1="139.826" y1="60.298" x2="185.54" y2="60.298"/>
				</g>
				<g>
					
						<line fill="none" stroke="#F5F5F5" stroke-width="0.2873" stroke-miterlimit="10" x1="139.826" y1="53.211" x2="185.54" y2="53.211"/>
				</g>
			</g>
			
				<line fill="none" stroke="#F5F5F5" stroke-width="0.2258" stroke-miterlimit="10" x1="139.826" y1="53.211" x2="139.826" y2="88.515"/>
			
				<line fill="none" stroke="#F5F5F5" stroke-width="0.2256" stroke-miterlimit="10" x1="185.54" y1="53.284" x2="185.54" y2="88.547"/>
			
				<line fill="none" stroke="#F5F5F5" stroke-width="0.2256" stroke-miterlimit="10" x1="174.81" y1="53.284" x2="174.81" y2="88.547"/>
			
				<line fill="none" stroke="#F5F5F5" stroke-width="0.2255" stroke-miterlimit="10" x1="162.477" y1="53.282" x2="162.477" y2="88.515"/>
			<text transform="matrix(1 0 0 1 139.8254 51.2566)" fill="#F5F5F5" font-family="'OCRA'" font-size="4">Pulse/rev Table</text>
		</g>
		<text transform="matrix(-4.371139e-08 -1 1 -4.371139e-08 223.6184 51.6077)" fill="#F5F5F5" font-family="'OCRA'" font-size="6">RS232</text>
		<text transform="matrix(1 0 0 1 139.8254 101.157)" fill="#F5F5F5" font-family="'OCRA'" font-size="4">SW4: off=Half Current;</text>
		<text transform="matrix(1 0 0 1 139.8254 105.9578)" fill="#F5F5F5" font-family="'OCRA'" font-size="4">on = Full Current</text>
		<text transform="matrix(1 0 0 1 139.8254 110.7576)" fill="#F5F5F5" font-family="'OCRA'" font-size="4">Auto Tunning: Sw4 change</text>
		<text transform="matrix(1 0 0 1 139.8254 115.5574)" fill="#F5F5F5" font-family="'OCRA'" font-size="4">2times in 1sec </text>
	</g>
</g>
</svg>
