<?xml version="1.0" encoding="utf-8"?>
<!-- Generator: Adobe Illustrator 16.0.4, SVG Export Plug-In . SVG Version: 6.00 Build 0)  -->
<!DOCTYPE svg PUBLIC "-//W3C//DTD SVG 1.1//EN" "http://www.w3.org/Graphics/SVG/1.1/DTD/svg11.dtd">
<svg version="1.1" id="Layer_1" xmlns="http://www.w3.org/2000/svg" xmlns:xlink="http://www.w3.org/1999/xlink" x="0px" y="0px"
	 width="57.643px" height="71.833px" viewBox="0 0 57.643 71.833" enable-background="new 0 0 57.643 71.833" xml:space="preserve">
<g id="background">
	<rect x="-28.625" y="-21.614" fill="#F2F2F2" width="122.107" height="122.062"/>
</g>
<g id="schematic" xmlns:xml="http://www.w3.org/XML/1998/namespace">
	
		<rect id="part_symbol" x="7.2" y="7.2" fill="#FFFFFF" stroke="#000000" stroke-width="0.9002" stroke-linecap="round" width="43.198" height="57.599"/>
	<g>
		
			<line fill="none" stroke="#555555" stroke-width="0.7" stroke-linecap="round" stroke-linejoin="round" x1="28.8" y1="64.799" x2="28.8" y2="72"/>
	</g>
	
		<line fill="none" stroke="#555555" stroke-width="0.7" stroke-linecap="round" stroke-linejoin="round" x1="0.121" y1="28.8" x2="7.321" y2="28.8"/>
	
		<line fill="none" stroke="#555555" stroke-width="0.7" stroke-linecap="round" stroke-linejoin="round" x1="0.121" y1="21.6" x2="7.321" y2="21.6"/>
	
		<line fill="none" stroke="#555555" stroke-width="0.7" stroke-linecap="round" stroke-linejoin="round" x1="0.121" y1="43.2" x2="7.321" y2="43.2"/>
	
		<line fill="none" stroke="#555555" stroke-width="0.7" stroke-linecap="round" stroke-linejoin="round" x1="0.121" y1="36" x2="7.321" y2="36"/>
	<g>
		
			<line fill="none" stroke="#555555" stroke-width="0.7" stroke-linecap="round" stroke-linejoin="round" x1="28.8" y1="7.201" x2="28.8" y2="0"/>
	</g>
	<text transform="matrix(1 0 0 1 2.2043 20.0601)" fill="#555555" font-family="'DroidSans'" font-size="3">A+</text>
	<text transform="matrix(1 0 0 1 30.1624 3.8726)" fill="#555555" font-family="'DroidSans'" font-size="3">+Vdc</text>
	<text transform="matrix(1 0 0 1 30.1624 69.1099)" fill="#555555" font-family="'DroidSans'" font-size="3">GND</text>
	<text transform="matrix(1 0 0 1 2.5481 27.1851)" fill="#555555" font-family="'DroidSans'" font-size="3">A-</text>
	<text transform="matrix(1 0 0 1 2.1843 34.6851)" fill="#555555" font-family="'DroidSans'" font-size="3">B+</text>
	<text transform="matrix(1 0 0 1 2.5276 41.811)" fill="#555555" font-family="'DroidSans'" font-size="3">B-</text>
	<text transform="matrix(1 0 0 1 24.6106 62.4849)" fill="#555555" font-family="'DroidSans'" font-size="4.5">Gnd</text>
	<text transform="matrix(1 0 0 1 25.512 12.5356)" fill="#555555" font-family="'DroidSans'" font-size="4.5">V</text>
	<text transform="matrix(1 0 0 1 27.9329 12.5356)" fill="#555555" font-family="'DroidSans'" font-size="4.5">c</text>
	<text transform="matrix(1 0 0 1 30.0168 12.5356)" fill="#555555" font-family="'DroidSans'" font-size="4.5">c</text>
	<text transform="matrix(1 0 0 1 9.259 21.6001)" fill="#555555" font-family="'DroidSans'" font-size="4.5">Out</text>
	<text transform="matrix(1 0 0 1 9.219 28.9028)" fill="#555555" font-family="'DroidSans'" font-size="4.5">Out</text>
	<text transform="matrix(1 0 0 1 9.259 35.9858)" fill="#555555" font-family="'DroidSans'" font-size="4.5">Out</text>
	<text transform="matrix(1 0 0 1 9.219 43.2886)" fill="#555555" font-family="'DroidSans'" font-size="4.5">Out</text>
	<text transform="matrix(1 0 0 1 20.2297 22.1919)" font-family="'DroidSans'" font-size="4.69">DM422C </text>
	
		<line fill="none" stroke="#555555" stroke-width="0.7" stroke-linecap="round" stroke-linejoin="round" x1="50.4" y1="28.8" x2="57.6" y2="28.8"/>
	
		<line fill="none" stroke="#555555" stroke-width="0.7" stroke-linecap="round" stroke-linejoin="round" x1="50.4" y1="21.6" x2="57.6" y2="21.6"/>
	
		<line fill="none" stroke="#555555" stroke-width="0.7" stroke-linecap="round" stroke-linejoin="round" x1="50.4" y1="43.2" x2="57.6" y2="43.2"/>
	
		<line fill="none" stroke="#555555" stroke-width="0.7" stroke-linecap="round" stroke-linejoin="round" x1="50.4" y1="36" x2="57.6" y2="36"/>
	<text transform="matrix(1 0 0 1 51.1731 20.0601)" fill="#555555" font-family="'DroidSans'" font-size="3">PUL</text>
	<text transform="matrix(1 0 0 1 51.4172 27.1851)" fill="#555555" font-family="'DroidSans'" font-size="3">DIR</text>
	<text transform="matrix(1 0 0 1 51.0657 34.6851)" fill="#555555" font-family="'DroidSans'" font-size="3">OPT</text>
	<text transform="matrix(1 0 0 1 51.0237 41.811)" fill="#555555" font-family="'DroidSans'" font-size="3">ENA</text>
	<text transform="matrix(1 0 0 1 42.8215 21.6001)" fill="#555555" font-family="'DroidSans'" font-size="4.5">In</text>
	<text transform="matrix(1 0 0 1 42.8215 28.7998)" fill="#555555" font-family="'DroidSans'" font-size="4.5">In</text>
	<text transform="matrix(1 0 0 1 42.8215 35.916)" fill="#555555" font-family="'DroidSans'" font-size="4.5">In</text>
	<text transform="matrix(1 0 0 1 42.8215 43.1997)" fill="#555555" font-family="'DroidSans'" font-size="4.5">In</text>
</g>
</svg>
